<svg preserveAspectRatio="none" width="100%" height="100%" overflow="visible" style="display: block;" viewBox="0 0 97 113" fill="none" xmlns="http://www.w3.org/2000/svg">
<g id="Pin">
<path id="Pin_2" fill-rule="evenodd" clip-rule="evenodd" d="M14.3623 13.9437C23.4017 5.03663 35.5741 0.0302876 48.2645 0.000136974C60.9548 -0.0300136 73.1508 4.91844 82.2325 13.7825H82.2432L82.4152 13.9437C101.47 32.6863 101.507 62.7917 82.641 81.3462L52.1593 111.328C51.1539 112.318 49.7996 112.872 48.3888 112.872C46.9779 112.872 45.6237 112.318 44.6182 111.328L14.1366 81.3462C9.6615 76.9711 6.10575 71.7458 3.67814 65.9774C1.25053 60.209 0 54.0136 0 47.7551C0 41.4967 1.25053 35.3013 3.67814 29.5329C6.10575 23.7645 9.6615 18.5392 14.1366 14.1641L14.3623 13.9437ZM48.3753 26.8706C46.2578 26.8706 44.1609 27.2877 42.2046 28.098C40.2482 28.9084 38.4706 30.0961 36.9732 31.5935C35.4759 33.0908 34.2881 34.8684 33.4778 36.8248C32.6674 38.7812 32.2503 40.878 32.2503 42.9956C32.2503 45.1131 32.6674 47.21 33.4778 49.1664C34.2881 51.1227 35.4759 52.9003 36.9732 54.3977C38.4706 55.895 40.2482 57.0828 42.2046 57.8931C44.1609 58.7035 46.2578 59.1206 48.3753 59.1206C52.6519 59.1206 56.7534 57.4217 59.7774 54.3977C62.8015 51.3737 64.5003 47.2722 64.5003 42.9956C64.5003 38.719 62.8015 34.6175 59.7774 31.5935C56.7534 28.5695 52.6519 26.8706 48.3753 26.8706Z" fill="var(--fill-0, #846D5C)"/>
</g>
</svg>
